<mxfile host="app.diagrams.net" agent="Mozilla/5.0 (Windows NT 10.0; Win64; x64) AppleWebKit/537.36 (KHTML, like Gecko) Chrome/131.0.0.0 Safari/537.36" border="50" scale="3" compressed="false" locked="false" version="25.0.3">
  <diagram name="Blank" id="YmL12bMKpDGza6XwsDPr">
    <mxGraphModel dx="2925" dy="3195" grid="0" gridSize="10" guides="1" tooltips="1" connect="1" arrows="1" fold="1" page="0" pageScale="1" pageWidth="827" pageHeight="1169" background="none" math="1" shadow="0">
      <root>
        <mxCell id="X5NqExCQtvZxIxQ7pmgY-0" />
        <mxCell id="1" parent="X5NqExCQtvZxIxQ7pmgY-0" />
        <mxCell id="PVldWN88HM6v9H0IK6eR-95" style="edgeStyle=orthogonalEdgeStyle;rounded=0;orthogonalLoop=1;jettySize=auto;html=1;entryX=1;entryY=0.25;entryDx=0;entryDy=0;" edge="1" parent="1" source="PVldWN88HM6v9H0IK6eR-18" target="PVldWN88HM6v9H0IK6eR-40">
          <mxGeometry relative="1" as="geometry">
            <Array as="points">
              <mxPoint x="-127" y="-523" />
              <mxPoint x="-127" y="-1022" />
            </Array>
          </mxGeometry>
        </mxCell>
        <mxCell id="PVldWN88HM6v9H0IK6eR-97" style="edgeStyle=orthogonalEdgeStyle;rounded=0;orthogonalLoop=1;jettySize=auto;html=1;" edge="1" parent="1" source="PVldWN88HM6v9H0IK6eR-18">
          <mxGeometry relative="1" as="geometry">
            <mxPoint x="-333.7368421052631" y="-722.3684210526314" as="targetPoint" />
          </mxGeometry>
        </mxCell>
        <mxCell id="PVldWN88HM6v9H0IK6eR-98" style="edgeStyle=orthogonalEdgeStyle;rounded=0;orthogonalLoop=1;jettySize=auto;html=1;" edge="1" parent="1" source="PVldWN88HM6v9H0IK6eR-18">
          <mxGeometry relative="1" as="geometry">
            <mxPoint x="-168.5" y="-269.75" as="targetPoint" />
          </mxGeometry>
        </mxCell>
        <mxCell id="PVldWN88HM6v9H0IK6eR-18" value="MainGui" style="swimlane;fontStyle=1;align=center;verticalAlign=top;childLayout=stackLayout;horizontal=1;startSize=26;horizontalStack=0;resizeParent=1;resizeParentMax=0;resizeLast=0;collapsible=1;marginBottom=0;whiteSpace=wrap;html=1;" vertex="1" parent="1">
          <mxGeometry x="-69" y="-631" width="739" height="216" as="geometry">
            <mxRectangle x="159" y="366" width="95" height="26" as="alternateBounds" />
          </mxGeometry>
        </mxCell>
        <mxCell id="PVldWN88HM6v9H0IK6eR-19" value="&lt;font style=&quot;font-size: 11px;&quot;&gt;+&amp;nbsp; MainGUI: String&lt;/font&gt;&lt;div&gt;&lt;br&gt;&lt;/div&gt;" style="text;strokeColor=none;fillColor=none;align=left;verticalAlign=top;spacingLeft=4;spacingRight=4;overflow=hidden;rotatable=0;points=[[0,0.5],[1,0.5]];portConstraint=eastwest;whiteSpace=wrap;html=1;" vertex="1" parent="PVldWN88HM6v9H0IK6eR-18">
          <mxGeometry y="26" width="739" height="26" as="geometry" />
        </mxCell>
        <mxCell id="PVldWN88HM6v9H0IK6eR-20" value="" style="line;strokeWidth=1;fillColor=none;align=left;verticalAlign=middle;spacingTop=-1;spacingLeft=3;spacingRight=3;rotatable=0;labelPosition=right;points=[];portConstraint=eastwest;strokeColor=inherit;" vertex="1" parent="PVldWN88HM6v9H0IK6eR-18">
          <mxGeometry y="52" width="739" height="8" as="geometry" />
        </mxCell>
        <mxCell id="PVldWN88HM6v9H0IK6eR-24" value="&lt;span&gt;- showAddMenuDialog(menuList )&lt;/span&gt;&lt;span style=&quot;background-color: initial;&quot;&gt;:void&lt;/span&gt;" style="text;strokeColor=none;fillColor=none;align=left;verticalAlign=top;spacingLeft=4;spacingRight=4;overflow=hidden;rotatable=0;points=[[0,0.5],[1,0.5]];portConstraint=eastwest;whiteSpace=wrap;html=1;fontSize=12;" vertex="1" parent="PVldWN88HM6v9H0IK6eR-18">
          <mxGeometry y="60" width="739" height="26" as="geometry" />
        </mxCell>
        <mxCell id="PVldWN88HM6v9H0IK6eR-25" value="&lt;font&gt;- saveMenuDataToFile(name: String, menuName: String, taste: String, price: String, type: String, location: String, imagePath: String): void&lt;br&gt;&lt;/font&gt;" style="text;strokeColor=none;fillColor=none;align=left;verticalAlign=top;spacingLeft=4;spacingRight=4;overflow=hidden;rotatable=0;points=[[0,0.5],[1,0.5]];portConstraint=eastwest;whiteSpace=wrap;html=1;fontSize=12;" vertex="1" parent="PVldWN88HM6v9H0IK6eR-18">
          <mxGeometry y="86" width="739" height="26" as="geometry" />
        </mxCell>
        <mxCell id="PVldWN88HM6v9H0IK6eR-55" value="&lt;font&gt;- showRecommedationDialog(MenuData): void&lt;/font&gt;&lt;div&gt;&lt;div&gt;&lt;br&gt;&lt;/div&gt;&lt;/div&gt;" style="text;strokeColor=none;fillColor=none;align=left;verticalAlign=top;spacingLeft=4;spacingRight=4;overflow=hidden;rotatable=0;points=[[0,0.5],[1,0.5]];portConstraint=eastwest;whiteSpace=wrap;html=1;fontSize=12;" vertex="1" parent="PVldWN88HM6v9H0IK6eR-18">
          <mxGeometry y="112" width="739" height="26" as="geometry" />
        </mxCell>
        <mxCell id="PVldWN88HM6v9H0IK6eR-57" value="- updateRanking(): void" style="text;strokeColor=none;fillColor=none;align=left;verticalAlign=top;spacingLeft=4;spacingRight=4;overflow=hidden;rotatable=0;points=[[0,0.5],[1,0.5]];portConstraint=eastwest;whiteSpace=wrap;html=1;fontSize=12;" vertex="1" parent="PVldWN88HM6v9H0IK6eR-18">
          <mxGeometry y="138" width="739" height="26" as="geometry" />
        </mxCell>
        <mxCell id="PVldWN88HM6v9H0IK6eR-58" value="- showRankingDetailDialog:(selected: String,List) void" style="text;strokeColor=none;fillColor=none;align=left;verticalAlign=top;spacingLeft=4;spacingRight=4;overflow=hidden;rotatable=0;points=[[0,0.5],[1,0.5]];portConstraint=eastwest;whiteSpace=wrap;html=1;" vertex="1" parent="PVldWN88HM6v9H0IK6eR-18">
          <mxGeometry y="164" width="739" height="26" as="geometry" />
        </mxCell>
        <mxCell id="PVldWN88HM6v9H0IK6eR-59" value="- saveRecommendation(MenuData): void" style="text;strokeColor=none;fillColor=none;align=left;verticalAlign=top;spacingLeft=4;spacingRight=4;overflow=hidden;rotatable=0;points=[[0,0.5],[1,0.5]];portConstraint=eastwest;whiteSpace=wrap;html=1;" vertex="1" parent="PVldWN88HM6v9H0IK6eR-18">
          <mxGeometry y="190" width="739" height="26" as="geometry" />
        </mxCell>
        <mxCell id="PVldWN88HM6v9H0IK6eR-87" style="edgeStyle=orthogonalEdgeStyle;rounded=0;orthogonalLoop=1;jettySize=auto;html=1;" edge="1" parent="1" source="PVldWN88HM6v9H0IK6eR-26">
          <mxGeometry relative="1" as="geometry">
            <mxPoint x="-290.2727272727275" y="-261.54545454545473" as="targetPoint" />
          </mxGeometry>
        </mxCell>
        <mxCell id="PVldWN88HM6v9H0IK6eR-26" value="MenuSeletor" style="swimlane;fontStyle=1;align=center;verticalAlign=top;childLayout=stackLayout;horizontal=1;startSize=26;horizontalStack=0;resizeParent=1;resizeParentMax=0;resizeLast=0;collapsible=1;marginBottom=0;whiteSpace=wrap;html=1;" vertex="1" parent="1">
          <mxGeometry x="-773" y="-873" width="595" height="138" as="geometry">
            <mxRectangle x="-773" y="-873" width="95" height="26" as="alternateBounds" />
          </mxGeometry>
        </mxCell>
        <mxCell id="PVldWN88HM6v9H0IK6eR-28" value="&lt;div&gt;- menuList: List&amp;lt;MenuData&amp;gt;&lt;/div&gt;" style="text;strokeColor=none;fillColor=none;align=left;verticalAlign=top;spacingLeft=4;spacingRight=4;overflow=hidden;rotatable=0;points=[[0,0.5],[1,0.5]];portConstraint=eastwest;whiteSpace=wrap;html=1;" vertex="1" parent="PVldWN88HM6v9H0IK6eR-26">
          <mxGeometry y="26" width="595" height="26" as="geometry" />
        </mxCell>
        <mxCell id="PVldWN88HM6v9H0IK6eR-29" value="" style="line;strokeWidth=1;fillColor=none;align=left;verticalAlign=middle;spacingTop=-1;spacingLeft=3;spacingRight=3;rotatable=0;labelPosition=right;points=[];portConstraint=eastwest;strokeColor=inherit;" vertex="1" parent="PVldWN88HM6v9H0IK6eR-26">
          <mxGeometry y="52" width="595" height="8" as="geometry" />
        </mxCell>
        <mxCell id="PVldWN88HM6v9H0IK6eR-30" value="+ MenuSelector(menuList: List&lt;MenuData&gt;)" style="text;strokeColor=none;fillColor=none;align=left;verticalAlign=top;spacingLeft=4;spacingRight=4;overflow=hidden;rotatable=0;points=[[0,0.5],[1,0.5]];portConstraint=eastwest;whiteSpace=wrap;html=1;" vertex="1" parent="PVldWN88HM6v9H0IK6eR-26">
          <mxGeometry y="60" width="595" height="26" as="geometry" />
        </mxCell>
        <mxCell id="PVldWN88HM6v9H0IK6eR-31" value="+ selectRandomMenu(taste: String, type: String, price: String, exclude: String, location: String): MenuData" style="text;strokeColor=none;fillColor=none;align=left;verticalAlign=top;spacingLeft=4;spacingRight=4;overflow=hidden;rotatable=0;points=[[0,0.5],[1,0.5]];portConstraint=eastwest;whiteSpace=wrap;html=1;" vertex="1" parent="PVldWN88HM6v9H0IK6eR-26">
          <mxGeometry y="86" width="595" height="26" as="geometry" />
        </mxCell>
        <mxCell id="PVldWN88HM6v9H0IK6eR-32" value="+ isPriceInRange(menuPrice: String, userPriceRange: String): boolean&amp;nbsp;" style="text;strokeColor=none;fillColor=none;align=left;verticalAlign=top;spacingLeft=4;spacingRight=4;overflow=hidden;rotatable=0;points=[[0,0.5],[1,0.5]];portConstraint=eastwest;whiteSpace=wrap;html=1;" vertex="1" parent="PVldWN88HM6v9H0IK6eR-26">
          <mxGeometry y="112" width="595" height="26" as="geometry" />
        </mxCell>
        <mxCell id="PVldWN88HM6v9H0IK6eR-94" style="edgeStyle=orthogonalEdgeStyle;rounded=0;orthogonalLoop=1;jettySize=auto;html=1;exitX=0.5;exitY=0;exitDx=0;exitDy=0;" edge="1" parent="1" source="PVldWN88HM6v9H0IK6eR-33">
          <mxGeometry relative="1" as="geometry">
            <mxPoint x="435.25" y="-402.25" as="targetPoint" />
          </mxGeometry>
        </mxCell>
        <mxCell id="PVldWN88HM6v9H0IK6eR-33" value="ComponentFactory" style="swimlane;fontStyle=1;align=center;verticalAlign=top;childLayout=stackLayout;horizontal=1;startSize=26;horizontalStack=0;resizeParent=1;resizeParentMax=0;resizeLast=0;collapsible=1;marginBottom=0;whiteSpace=wrap;html=1;" vertex="1" parent="1">
          <mxGeometry x="243" y="-242" width="385" height="138" as="geometry">
            <mxRectangle x="159" y="366" width="95" height="26" as="alternateBounds" />
          </mxGeometry>
        </mxCell>
        <mxCell id="PVldWN88HM6v9H0IK6eR-36" value="" style="line;strokeWidth=1;fillColor=none;align=left;verticalAlign=middle;spacingTop=-1;spacingLeft=3;spacingRight=3;rotatable=0;labelPosition=right;points=[];portConstraint=eastwest;strokeColor=inherit;" vertex="1" parent="PVldWN88HM6v9H0IK6eR-33">
          <mxGeometry y="26" width="385" height="8" as="geometry" />
        </mxCell>
        <mxCell id="PVldWN88HM6v9H0IK6eR-38" value="+ createLabel(text: String): JLabel" style="text;strokeColor=none;fillColor=none;align=left;verticalAlign=top;spacingLeft=4;spacingRight=4;overflow=hidden;rotatable=0;points=[[0,0.5],[1,0.5]];portConstraint=eastwest;whiteSpace=wrap;html=1;" vertex="1" parent="PVldWN88HM6v9H0IK6eR-33">
          <mxGeometry y="34" width="385" height="26" as="geometry" />
        </mxCell>
        <mxCell id="PVldWN88HM6v9H0IK6eR-39" value="+ createComboBox(items: String[]): JComboBox&amp;lt;String&amp;gt;" style="text;strokeColor=none;fillColor=none;align=left;verticalAlign=top;spacingLeft=4;spacingRight=4;overflow=hidden;rotatable=0;points=[[0,0.5],[1,0.5]];portConstraint=eastwest;whiteSpace=wrap;html=1;" vertex="1" parent="PVldWN88HM6v9H0IK6eR-33">
          <mxGeometry y="60" width="385" height="26" as="geometry" />
        </mxCell>
        <mxCell id="PVldWN88HM6v9H0IK6eR-93" value="+ createTextField(): JTextField&amp;nbsp;" style="text;strokeColor=none;fillColor=none;align=left;verticalAlign=top;spacingLeft=4;spacingRight=4;overflow=hidden;rotatable=0;points=[[0,0.5],[1,0.5]];portConstraint=eastwest;whiteSpace=wrap;html=1;" vertex="1" parent="PVldWN88HM6v9H0IK6eR-33">
          <mxGeometry y="86" width="385" height="26" as="geometry" />
        </mxCell>
        <mxCell id="PVldWN88HM6v9H0IK6eR-92" value="+ createButton(text: String): JButton" style="text;strokeColor=none;fillColor=none;align=left;verticalAlign=top;spacingLeft=4;spacingRight=4;overflow=hidden;rotatable=0;points=[[0,0.5],[1,0.5]];portConstraint=eastwest;whiteSpace=wrap;html=1;" vertex="1" parent="PVldWN88HM6v9H0IK6eR-33">
          <mxGeometry y="112" width="385" height="26" as="geometry" />
        </mxCell>
        <mxCell id="PVldWN88HM6v9H0IK6eR-40" value="MenuLoader" style="swimlane;fontStyle=1;align=center;verticalAlign=top;childLayout=stackLayout;horizontal=1;startSize=26;horizontalStack=0;resizeParent=1;resizeParentMax=0;resizeLast=0;collapsible=1;marginBottom=0;whiteSpace=wrap;html=1;" vertex="1" parent="1">
          <mxGeometry x="-835" y="-1037" width="287" height="60" as="geometry">
            <mxRectangle x="159" y="366" width="95" height="26" as="alternateBounds" />
          </mxGeometry>
        </mxCell>
        <mxCell id="PVldWN88HM6v9H0IK6eR-43" value="" style="line;strokeWidth=1;fillColor=none;align=left;verticalAlign=middle;spacingTop=-1;spacingLeft=3;spacingRight=3;rotatable=0;labelPosition=right;points=[];portConstraint=eastwest;strokeColor=inherit;" vertex="1" parent="PVldWN88HM6v9H0IK6eR-40">
          <mxGeometry y="26" width="287" height="8" as="geometry" />
        </mxCell>
        <mxCell id="PVldWN88HM6v9H0IK6eR-46" value="+ loadMenuData(filePath: String): List&amp;lt;MenuData&amp;gt; |" style="text;strokeColor=none;fillColor=none;align=left;verticalAlign=top;spacingLeft=4;spacingRight=4;overflow=hidden;rotatable=0;points=[[0,0.5],[1,0.5]];portConstraint=eastwest;whiteSpace=wrap;html=1;" vertex="1" parent="PVldWN88HM6v9H0IK6eR-40">
          <mxGeometry y="34" width="287" height="26" as="geometry" />
        </mxCell>
        <mxCell id="PVldWN88HM6v9H0IK6eR-47" value="MenuData" style="swimlane;fontStyle=1;align=center;verticalAlign=top;childLayout=stackLayout;horizontal=1;startSize=26;horizontalStack=0;resizeParent=1;resizeParentMax=0;resizeLast=0;collapsible=1;marginBottom=0;whiteSpace=wrap;html=1;" vertex="1" parent="1">
          <mxGeometry x="-625" y="-260" width="665" height="424" as="geometry">
            <mxRectangle x="159" y="366" width="95" height="26" as="alternateBounds" />
          </mxGeometry>
        </mxCell>
        <mxCell id="PVldWN88HM6v9H0IK6eR-48" value="- name : String" style="text;strokeColor=none;fillColor=none;align=left;verticalAlign=top;spacingLeft=4;spacingRight=4;overflow=hidden;rotatable=0;points=[[0,0.5],[1,0.5]];portConstraint=eastwest;whiteSpace=wrap;html=1;" vertex="1" parent="PVldWN88HM6v9H0IK6eR-47">
          <mxGeometry y="26" width="665" height="26" as="geometry" />
        </mxCell>
        <mxCell id="PVldWN88HM6v9H0IK6eR-65" value="- menuName: String" style="text;strokeColor=none;fillColor=none;align=left;verticalAlign=top;spacingLeft=4;spacingRight=4;overflow=hidden;rotatable=0;points=[[0,0.5],[1,0.5]];portConstraint=eastwest;whiteSpace=wrap;html=1;" vertex="1" parent="PVldWN88HM6v9H0IK6eR-47">
          <mxGeometry y="52" width="665" height="26" as="geometry" />
        </mxCell>
        <mxCell id="PVldWN88HM6v9H0IK6eR-64" value="- taste : String" style="text;strokeColor=none;fillColor=none;align=left;verticalAlign=top;spacingLeft=4;spacingRight=4;overflow=hidden;rotatable=0;points=[[0,0.5],[1,0.5]];portConstraint=eastwest;whiteSpace=wrap;html=1;" vertex="1" parent="PVldWN88HM6v9H0IK6eR-47">
          <mxGeometry y="78" width="665" height="26" as="geometry" />
        </mxCell>
        <mxCell id="PVldWN88HM6v9H0IK6eR-63" value="- price : String" style="text;strokeColor=none;fillColor=none;align=left;verticalAlign=top;spacingLeft=4;spacingRight=4;overflow=hidden;rotatable=0;points=[[0,0.5],[1,0.5]];portConstraint=eastwest;whiteSpace=wrap;html=1;" vertex="1" parent="PVldWN88HM6v9H0IK6eR-47">
          <mxGeometry y="104" width="665" height="26" as="geometry" />
        </mxCell>
        <mxCell id="PVldWN88HM6v9H0IK6eR-62" value="- type : String" style="text;strokeColor=none;fillColor=none;align=left;verticalAlign=top;spacingLeft=4;spacingRight=4;overflow=hidden;rotatable=0;points=[[0,0.5],[1,0.5]];portConstraint=eastwest;whiteSpace=wrap;html=1;" vertex="1" parent="PVldWN88HM6v9H0IK6eR-47">
          <mxGeometry y="130" width="665" height="26" as="geometry" />
        </mxCell>
        <mxCell id="PVldWN88HM6v9H0IK6eR-61" value="- location : String" style="text;strokeColor=none;fillColor=none;align=left;verticalAlign=top;spacingLeft=4;spacingRight=4;overflow=hidden;rotatable=0;points=[[0,0.5],[1,0.5]];portConstraint=eastwest;whiteSpace=wrap;html=1;" vertex="1" parent="PVldWN88HM6v9H0IK6eR-47">
          <mxGeometry y="156" width="665" height="26" as="geometry" />
        </mxCell>
        <mxCell id="PVldWN88HM6v9H0IK6eR-88" style="edgeStyle=orthogonalEdgeStyle;rounded=0;orthogonalLoop=1;jettySize=auto;html=1;" edge="1" parent="PVldWN88HM6v9H0IK6eR-47" source="PVldWN88HM6v9H0IK6eR-60">
          <mxGeometry relative="1" as="geometry">
            <mxPoint x="844.3478260869567" y="-149.65217391304327" as="targetPoint" />
          </mxGeometry>
        </mxCell>
        <mxCell id="PVldWN88HM6v9H0IK6eR-60" value="- imagePath : String" style="text;strokeColor=none;fillColor=none;align=left;verticalAlign=top;spacingLeft=4;spacingRight=4;overflow=hidden;rotatable=0;points=[[0,0.5],[1,0.5]];portConstraint=eastwest;whiteSpace=wrap;html=1;" vertex="1" parent="PVldWN88HM6v9H0IK6eR-47">
          <mxGeometry y="182" width="665" height="26" as="geometry" />
        </mxCell>
        <mxCell id="PVldWN88HM6v9H0IK6eR-50" value="" style="line;strokeWidth=1;fillColor=none;align=left;verticalAlign=middle;spacingTop=-1;spacingLeft=3;spacingRight=3;rotatable=0;labelPosition=right;points=[];portConstraint=eastwest;strokeColor=inherit;" vertex="1" parent="PVldWN88HM6v9H0IK6eR-47">
          <mxGeometry y="208" width="665" height="8" as="geometry" />
        </mxCell>
        <mxCell id="PVldWN88HM6v9H0IK6eR-51" value="+ MenuData(name: String, menuName: String, taste: String, price: String, type: String, location: String, imagePath: String)" style="text;strokeColor=none;fillColor=none;align=left;verticalAlign=top;spacingLeft=4;spacingRight=4;overflow=hidden;rotatable=0;points=[[0,0.5],[1,0.5]];portConstraint=eastwest;whiteSpace=wrap;html=1;" vertex="1" parent="PVldWN88HM6v9H0IK6eR-47">
          <mxGeometry y="216" width="665" height="26" as="geometry" />
        </mxCell>
        <mxCell id="PVldWN88HM6v9H0IK6eR-52" value="+ getName(): String&amp;nbsp;" style="text;strokeColor=none;fillColor=none;align=left;verticalAlign=top;spacingLeft=4;spacingRight=4;overflow=hidden;rotatable=0;points=[[0,0.5],[1,0.5]];portConstraint=eastwest;whiteSpace=wrap;html=1;" vertex="1" parent="PVldWN88HM6v9H0IK6eR-47">
          <mxGeometry y="242" width="665" height="26" as="geometry" />
        </mxCell>
        <mxCell id="PVldWN88HM6v9H0IK6eR-72" value="+ getMenuName(): String" style="text;strokeColor=none;fillColor=none;align=left;verticalAlign=top;spacingLeft=4;spacingRight=4;overflow=hidden;rotatable=0;points=[[0,0.5],[1,0.5]];portConstraint=eastwest;whiteSpace=wrap;html=1;" vertex="1" parent="PVldWN88HM6v9H0IK6eR-47">
          <mxGeometry y="268" width="665" height="26" as="geometry" />
        </mxCell>
        <mxCell id="PVldWN88HM6v9H0IK6eR-71" value="+ getTaste(): String" style="text;strokeColor=none;fillColor=none;align=left;verticalAlign=top;spacingLeft=4;spacingRight=4;overflow=hidden;rotatable=0;points=[[0,0.5],[1,0.5]];portConstraint=eastwest;whiteSpace=wrap;html=1;" vertex="1" parent="PVldWN88HM6v9H0IK6eR-47">
          <mxGeometry y="294" width="665" height="26" as="geometry" />
        </mxCell>
        <mxCell id="PVldWN88HM6v9H0IK6eR-70" value="+ getPrice(): String" style="text;strokeColor=none;fillColor=none;align=left;verticalAlign=top;spacingLeft=4;spacingRight=4;overflow=hidden;rotatable=0;points=[[0,0.5],[1,0.5]];portConstraint=eastwest;whiteSpace=wrap;html=1;" vertex="1" parent="PVldWN88HM6v9H0IK6eR-47">
          <mxGeometry y="320" width="665" height="26" as="geometry" />
        </mxCell>
        <mxCell id="PVldWN88HM6v9H0IK6eR-69" value="+ getType(): String&amp;nbsp;" style="text;strokeColor=none;fillColor=none;align=left;verticalAlign=top;spacingLeft=4;spacingRight=4;overflow=hidden;rotatable=0;points=[[0,0.5],[1,0.5]];portConstraint=eastwest;whiteSpace=wrap;html=1;" vertex="1" parent="PVldWN88HM6v9H0IK6eR-47">
          <mxGeometry y="346" width="665" height="26" as="geometry" />
        </mxCell>
        <mxCell id="PVldWN88HM6v9H0IK6eR-68" value="+ getLocation(): String" style="text;strokeColor=none;fillColor=none;align=left;verticalAlign=top;spacingLeft=4;spacingRight=4;overflow=hidden;rotatable=0;points=[[0,0.5],[1,0.5]];portConstraint=eastwest;whiteSpace=wrap;html=1;" vertex="1" parent="PVldWN88HM6v9H0IK6eR-47">
          <mxGeometry y="372" width="665" height="26" as="geometry" />
        </mxCell>
        <mxCell id="PVldWN88HM6v9H0IK6eR-67" value="+ getImagePath(): String" style="text;strokeColor=none;fillColor=none;align=left;verticalAlign=top;spacingLeft=4;spacingRight=4;overflow=hidden;rotatable=0;points=[[0,0.5],[1,0.5]];portConstraint=eastwest;whiteSpace=wrap;html=1;" vertex="1" parent="PVldWN88HM6v9H0IK6eR-47">
          <mxGeometry y="398" width="665" height="26" as="geometry" />
        </mxCell>
        <mxCell id="PVldWN88HM6v9H0IK6eR-83" style="edgeStyle=orthogonalEdgeStyle;rounded=0;orthogonalLoop=1;jettySize=auto;html=1;exitX=0;exitY=0.25;exitDx=0;exitDy=0;entryX=0;entryY=0.038;entryDx=0;entryDy=0;entryPerimeter=0;" edge="1" parent="1" source="PVldWN88HM6v9H0IK6eR-40" target="PVldWN88HM6v9H0IK6eR-47">
          <mxGeometry relative="1" as="geometry" />
        </mxCell>
      </root>
    </mxGraphModel>
  </diagram>
</mxfile>
